<svg
                  id="avatarSvg"
                class="avatar-svg"
                viewBox="0 0 180 260"
                xmlns="http://www.w3.org/2000/svg"
              >
                <!-- background halo -->
                <defs>
                  <radialGradient id="haloGrad" cx="50%" cy="10%" r="70%">
                    <stop offset="0%" stop-color="#ffe8ff" stop-opacity="1" />
                    <stop offset="55%" stop-color="#7a4bff" stop-opacity="0.9" />
                    <stop offset="100%" stop-color="#150425" stop-opacity="1" />
                  </radialGradient>
                  <linearGradient id="skinGrad" x1="0" y1="0" x2="0" y2="1">
                    <stop offset="0%" stop-color="#f5c6a3" />
                    <stop offset="100%" stop-color="#f5c6a3" />
                  </linearGradient>
                  <linearGradient id="hairDark" x1="0" y1="0" x2="1" y2="1">
                    <stop offset="0%" stop-color="#221426" />
                    <stop offset="100%" stop-color="#4a305f" />
                  </linearGradient>
                </defs>

                <rect
                  x="0"
                  y="0"
                  width="180"
                  height="260"
                  fill="url(#haloGrad)"
                  rx="28"
                />

                <!-- HAIR STYLES (drawn behind face) -->
                <g id="hair-layer">
                  <g id="hair_bubble-pigtails_art" class="avatar-piece">
                    <!-- scalp cap -->
                    <path
                      d="M64 46 Q90 20 116 46 Q112 30 106 22 Q98 14 90 14 Q82 14 74 22 Q68 30 64 46Z"
                      fill="#3a1b4a"
                    />

                    <!-- left pigtail -->
                    <path
                      d="M68 52 Q58 56 56 68 Q54 80 64 88 Q74 82 74 70 Q74 58 68 52Z"
                      fill="#5c2a7a"
                    />
                    <circle cx="58" cy="70" r="9" fill="#5c2a7a" />
                    <circle cx="58" cy="70" r="3.8" fill="#ffbdf5" />

                    <!-- right pigtail -->
                    <path
                      d="M112 52 Q122 56 124 68 Q126 80 116 88 Q106 82 106 70 Q106 58 112 52Z"
                      fill="#5c2a7a"
                    />
                    <circle cx="122" cy="70" r="9" fill="#5c2a7a" />
                    <circle cx="122" cy="70" r="3.8" fill="#ffbdf5" />
                  </g>

                  <g id="hair_sleek-bun_art" class="avatar-piece">
                    <!-- main updo volume, tightened so it doesn't stick out past the head -->
                    <path
                      d="M66 46 Q90 20 114 46 Q112 64 102 74 Q90 80 78 74 Q68 64 66 46Z"
                      fill="#1b1025"
                    />
                    <!-- crown bun -->
                    <path
                      d="M76 24 Q90 8 104 24 Q98 34 90 38 Q82 34 76 24Z"
                      fill="#1b1025"
                    />
                    <!-- subtle highlight across the top of the updo -->
                    <path
                      d="M78 46 Q90 38 102 46"
                      stroke="#4b3c72"
                      stroke-width="2"
                      stroke-linecap="round"
                      fill="none"
                    />
                    <!-- curly bang pieces at the temples -->
                    <path
                      d="M76 50 Q74 54 76 58 Q78 62 76 66"
                      stroke="#1b1025"
                      stroke-width="2"
                      stroke-linecap="round"
                      fill="none"
                    />
                    <path
                      d="M104 50 Q106 54 104 58 Q102 62 104 66"
                      stroke="#1b1025"
                      stroke-width="2"
                      stroke-linecap="round"
                      fill="none"
                    />
                  </g>

                  <g id="hair_beach-waves_art" class="avatar-piece">
                    <path
                      d="M60 38 Q90 14 120 38 Q124 74 116 104 Q106 132 90 140 Q74 132 64 104 Q56 74 60 38Z"
                      fill="#d38f5b"
                    />
                    <path
                      d="M70 60 Q80 52 90 60 Q100 68 110 60"
                      stroke="#f2c18a"
                      stroke-width="2"
                      fill="none"
                      stroke-linecap="round"
                    />
                  </g>

                  <g id="hair_space-buns_art" class="avatar-piece">
                    <ellipse
                      cx="90"
                      cy="44"
                      rx="30"
                      ry="18"
                      fill="#2b103f"
                    />
                    <circle cx="72" cy="30" r="9" fill="#4e2f94" />
                    <circle cx="108" cy="30" r="9" fill="#4e2f94" />
                    <circle cx="72" cy="30" r="4" fill="#ffefff" />
                    <circle cx="108" cy="30" r="4" fill="#ffefff" />
                    <circle cx="78" cy="50" r="2" fill="#ffe45f" />
                    <circle cx="100" cy="52" r="2" fill="#7df9ff" />
                  </g>

                  <g id="hair_claw-clip_art" class="avatar-piece">
                    <ellipse
                      cx="90"
                      cy="42"
                      rx="30"
                      ry="18"
                      fill="#211626"
                    />
                    <rect
                      x="77"
                      y="28"
                      width="26"
                      height="8"
                      rx="3"
                      fill="#f5ede7"
                    />
                    <rect
                      x="79"
                      y="30"
                      width="4"
                      height="8"
                      rx="2"
                      fill="#d4c6bd"
                    />
                    <rect
                      x="86"
                      y="30"
                      width="4"
                      height="8"
                      rx="2"
                      fill="#d4c6bd"
                    />
                    <rect
                      x="93"
                      y="30"
                      width="4"
                      height="8"
                      rx="2"
                      fill="#d4c6bd"
                    />
                    <rect
                      x="100"
                      y="30"
                      width="4"
                      height="8"
                      rx="2"
                      fill="#d4c6bd"
                    />
                  </g>

                  <g id="hair_curtain-bangs_art" class="avatar-piece">
                    <path
                      d="M60 38 Q90 16 120 38 Q124 70 112 100 Q100 130 90 138 Q80 130 68 100 Q56 70 60 38Z"
                      fill="#2a1835"
                    />
                    <path d="M72 50 Q78 62 76 75" stroke="#4a3858" stroke-width="1.5" fill="none"/>
                    <path d="M90 45 Q94 58 92 72" stroke="#4a3858" stroke-width="1.5" fill="none"/>
                    <path d="M108 50 Q102 62 104 75" stroke="#4a3858" stroke-width="1.5" fill="none"/>
                  </g>
                </g>

                <!-- base body / face drawn on top -->
                <g id="base-girl">
                  <!-- neck -->
                  <rect
                    x="82"
                    y="76"
                    width="16"
                    height="18"
                    rx="7"
                    fill="url(#skinGrad)"
                  />
                  <!-- shoulders / upper torso (hourglass) -->
                  <path
                    d="M58 96 Q90 82 122 96 Q118 132 110 152 Q102 170 90 174 Q78 170 70 152 Q62 132 58 96Z"
                    fill="url(#skinGrad)"
                  />
                  <!-- hips (wider than waist) -->
                  <path
                    d="M66 168 Q90 182 114 168 L118 194 Q104 206 90 208 Q76 206 62 194Z"
                    fill="url(#skinGrad)"
                  />
                  <!-- legs (even bigger + longer) -->
                  <rect
                    x="72"
                    y="194"
                    width="14"
                    height="60"
                    rx="7"
                    fill="url(#skinGrad)"
                  />
                  <rect
                    x="94"
                    y="194"
                    width="14"
                    height="60"
                    rx="7"
                    fill="url(#skinGrad)"
                  />
                  <!-- arms -->
                  <rect
                    x="36"
                    y="104"
                    width="14"
                    height="82"
                    rx="9"
                    fill="url(#skinGrad)"
                  />
                  <rect
                    x="130"
                    y="104"
                    width="14"
                    height="82"
                    rx="9"
                    fill="url(#skinGrad)"
                  />
                  <!-- head -->
                  <circle
                    cx="90"
                    cy="60"
                    r="26"
                    fill="url(#skinGrad)"
                    stroke="rgba(255,255,255,0.65)"
                    stroke-width="1.2"
                  />
                  <!-- detailed face -->
                  <g id="face">
                    <!-- brows -->
                    <path
                      d="M78 54 Q82 52 86 54"
                      stroke="#2b1630"
                      stroke-width="1.2"
                      stroke-linecap="round"
                      fill="none"
                    />
                    <path
                      d="M94 54 Q98 52 102 54"
                      stroke="#2b1630"
                      stroke-width="1.2"
                      stroke-linecap="round"
                      fill="none"
                    />
                    <!-- eyes -->
                    <ellipse
                      cx="82"
                      cy="58"
                      rx="4"
                      ry="2.8"
                      fill="#fdfbff"
                    />
                    <ellipse
                      cx="98"
                      cy="58"
                      rx="4"
                      ry="2.8"
                      fill="#fdfbff"
                    />
                    <circle cx="82" cy="58" r="1.8" fill="#3a223b" />
                    <circle cx="98" cy="58" r="1.8" fill="#3a223b" />
                    <!-- lashes left -->
                    <path
                      d="M78 56 L76 55"
                      stroke="#2b1630"
                      stroke-width="1"
                      stroke-linecap="round"
                    />
                    <path
                      d="M80 54.5 L78 53.5"
                      stroke="#2b1630"
                      stroke-width="1"
                      stroke-linecap="round"
                    />
                    <path
                      d="M84 54.5 L86 53.5"
                      stroke="#2b1630"
                      stroke-width="1"
                      stroke-linecap="round"
                    />
                    <!-- lashes right -->
                    <path
                      d="M102 56 L104 55"
                      stroke="#2b1630"
                      stroke-width="1"
                      stroke-linecap="round"
                    />
                    <path
                      d="M100 54.5 L102 53.5"
                      stroke="#2b1630"
                      stroke-width="1"
                      stroke-linecap="round"
                    />
                    <path
                      d="M96 54.5 L94 53.5"
                      stroke="#2b1630"
                      stroke-width="1"
                      stroke-linecap="round"
                    />
                    <!-- nose -->
                    <path
                      d="M90 58 Q91 62 89.5 64"
                      stroke="#bf7a69"
                      stroke-width="1"
                      stroke-linecap="round"
                      fill="none"
                    />
                    <!-- lips -->
                    <path
                      d="M80 69 Q90 76 100 69"
                      stroke="#c96d7a"
                      stroke-width="1.8"
                      stroke-linecap="round"
                      fill="none"
                    />
                    <path
                      d="M82 69 Q90 72 98 69"
                      stroke="#f1a2b0"
                      stroke-width="1"
                      stroke-linecap="round"
                      fill="none"
                    />
                  </g>

                  <!-- front hair overlays for styles that need bangs/curls -->
                  <g id="front-hair-layer">
                    <!-- curly bangs for sleek bun -->
                    <g id="hair_sleek-bun_overlay" class="avatar-piece">
                      <!-- wide hairline cap following the top of the head, curving down toward the temples -->
                      <path
                        d="M60 36 Q90 24 120 36 Q116 52 90 56 Q64 52 60 36Z"
                        fill="#1b1025"
                      />
                      <!-- left bang: bigger, looser curl starting from that cap -->
                      <path
                        d="M78 36 Q66 46 66 60 Q66 74 72 88"
                        stroke="#1b1025"
                        stroke-width="3"
                        stroke-linecap="round"
                        fill="none"
                      />
                      <!-- right bang -->
                      <path
                        d="M102 36 Q114 46 114 60 Q114 74 108 88"
                        stroke="#1b1025"
                        stroke-width="3"
                        stroke-linecap="round"
                        fill="none"
                      />
                    </g>
                  </g>
                </g>

                <!-- MAKEUP LOOKS -->
                <g id="makeup-layer">
                  <!-- soft glam: warm blush + glossy lip -->
                  <g id="makeup_soft-glam_art" class="avatar-piece">
                    <ellipse
                      cx="76"
                      cy="72"
                      rx="4.5"
                      ry="2.6"
                      fill="rgba(244, 152, 142, 0.6)"
                    />
                    <ellipse
                      cx="104"
                      cy="72"
                      rx="4.5"
                      ry="2.6"
                      fill="rgba(244, 152, 142, 0.6)"
                    />
                    <path
                      d="M82 70 Q90 74 98 70"
                      stroke="#f49baf"
                      stroke-width="2.2"
                      stroke-linecap="round"
                    />
                    <path
                      d="M82 70 Q90 72.5 98 70"
                      stroke="#ffd0de"
                      stroke-width="1.2"
                      stroke-linecap="round"
                    />
                  </g>

                  <!-- rave glitter liner -->
                  <g id="makeup_glitter-liner_art" class="avatar-piece">
                    <path
                      d="M76 56 Q82 52 88 56"
                      stroke="#7df9ff"
                      stroke-width="1.6"
                      stroke-linecap="round"
                    />
                    <path
                      d="M92 56 Q98 52 104 56"
                      stroke="#ff9df2"
                      stroke-width="1.6"
                      stroke-linecap="round"
                    />
                    <circle cx="80" cy="54" r="0.8" fill="#ffffff" />
                    <circle cx="86" cy="54" r="0.8" fill="#ffffff" />
                    <circle cx="94" cy="54" r="0.8" fill="#ffffff" />
                    <circle cx="100" cy="54" r="0.8" fill="#ffffff" />
                  </g>

                  <!-- sunkissed bronze -->
                  <g id="makeup_sunkissed_art" class="avatar-piece">
                    <path
                      d="M74 63 Q90 70 106 63"
                      stroke="rgba(193, 120, 70, 0.9)"
                      stroke-width="3"
                      stroke-linecap="round"
                    />
                    <ellipse
                      cx="90"
                      cy="74"
                      rx="10"
                      ry="4"
                      fill="rgba(201, 125, 80, 0.7)"
                    />
                  </g>

                  <!-- clean girl -->
                  <g id="makeup_clean-girl_art" class="avatar-piece">
                    <ellipse
                      cx="82"
                      cy="58"
                      rx="3.6"
                      ry="2.4"
                      fill="#fdfbff"
                    />
                    <ellipse
                      cx="98"
                      cy="58"
                      rx="3.6"
                      ry="2.4"
                      fill="#fdfbff"
                    />
                    <circle cx="82" cy="58" r="1.4" fill="#2a1a2c" />
                    <circle cx="98" cy="58" r="1.4" fill="#2a1a2c" />
                    <path
                      d="M82 68 Q90 70 98 68"
                      stroke="#e8a9b0"
                      stroke-width="1.5"
                      stroke-linecap="round"
                    />
                  </g>

                  <!-- siren smoky eye -->
                  <g id="makeup_siren_art" class="avatar-piece">
                    <path
                      d="M76 56 Q82 52 88 56 Q84 58 80 58Z"
                      fill="#4b2338"
                      opacity="0.9"
                    />
                    <path
                      d="M92 56 Q98 52 104 56 Q100 58 96 58Z"
                      fill="#4b2338"
                      opacity="0.9"
                    />
                    <path
                      d="M80 69 Q90 76 100 69"
                      stroke="#8a555a"
                      stroke-width="2"
                      stroke-linecap="round"
                      fill="none"
                    />
                  </g>

                  <g id="makeup_bold-red_art" class="avatar-piece">
                    <path
                      d="M78 68 Q90 76 102 68"
                      stroke="#b71c34"
                      stroke-width="3"
                      stroke-linecap="round"
                      fill="none"
                    />
                    <path
                      d="M80 68 Q90 73 100 68"
                      fill="#c62838"
                    />
                  </g>
                </g>

                <!-- DRESSES -->
                <g id="dress-layer">
                  <g id="dress_slip-dress_art" class="avatar-piece">
                    <path
                      d="M64 96 Q90 86 116 96 L122 190 Q90 210 58 190Z"
                      fill="#f0a5c0"
                    />
                    <path
                      d="M72 92 Q90 84 108 92"
                      stroke="#ffdbe9"
                      stroke-width="2"
                      fill="none"
                    />
                  </g>

                  <g id="dress_ballgown_art" class="avatar-piece">
                    <path
                      d="M64 96 Q90 88 116 96 L138 210 Q90 234 42 210Z"
                      fill="#4a215e"
                    />
                    <path
                      d="M50 156 Q90 142 130 156"
                      stroke="#b67bff"
                      stroke-width="2"
                      fill="none"
                      stroke-dasharray="4 4"
                      opacity="0.9"
                    />
                    <circle cx="78" cy="170" r="2" fill="#ffd6ff" />
                    <circle cx="102" cy="182" r="2" fill="#ffd6ff" />
                    <circle cx="90" cy="200" r="2" fill="#ffd6ff" />
                  </g>

                  <g id="dress_metallic-mini_art" class="avatar-piece">
                    <rect
                      x="64"
                      y="96"
                      width="52"
                      height="64"
                      rx="18"
                      fill="#f6f0ff"
                    />
                    <path
                      d="M64 120 Q90 108 116 120"
                      stroke="#c6b3ff"
                      stroke-width="2"
                      fill="none"
                    />
                    <rect
                      x="66"
                      y="98"
                      width="12"
                      height="18"
                      rx="8"
                      fill="rgba(255,255,255,0.65)"
                    />
                    <rect
                      x="102"
                      y="98"
                      width="12"
                      height="18"
                      rx="8"
                      fill="rgba(255,255,255,0.4)"
                    />
                  </g>

                  <g id="dress_cutout-knit_art" class="avatar-piece">
                    <path
                      d="M68 96 Q90 88 112 96 L120 210 Q90 228 60 210Z"
                      fill="#f3c8a0"
                    />
                    <path
                      d="M74 120 Q90 110 106 120"
                      stroke="#fbe1c5"
                      stroke-width="3"
                      fill="none"
                      stroke-dasharray="2 4"
                    />
                    <path
                      d="M72 150 Q90 140 108 150"
                      stroke="#fbe1c5"
                      stroke-width="3"
                      fill="none"
                      stroke-dasharray="2 4"
                    />
                  </g>

                  <g id="dress_archi-column_art" class="avatar-piece">
                    <rect
                      x="70"
                      y="96"
                      width="40"
                      height="110"
                      rx="12"
                      fill="#f2f2f5"
                    />
                    <path
                      d="M70 132 Q90 122 110 132"
                      stroke="#c4c7d4"
                      stroke-width="2"
                      fill="none"
                    />
                    <rect
                      x="70"
                      y="160"
                      width="40"
                      height="30"
                      rx="10"
                      fill="#d9dde7"
                    />
                  </g>

                  <g id="dress_blazer_art" class="avatar-piece">
                    <path d="M64 96 L70 96 L72 200 Q90 216 108 200 L110 96 L116 96" fill="#1a1a2e"/>
                    <path d="M90 96 L90 200" stroke="#3a3a5a" stroke-width="1" fill="none"/>
                    <rect x="88" y="96" width="4" height="30" rx="1" fill="#2a2a4a"/>
                    <path d="M72 132 Q90 124 108 132" stroke="#4a4a6a" stroke-width="1.5" fill="none"/>
                  </g>
                </g>

                <!-- TOPS -->
                <g id="top-layer">
                  <g id="top_mesh-long-sleeve_art" class="avatar-piece">
                    <rect
                      x="52"
                      y="96"
                      width="76"
                      height="46"
                      rx="24"
                      fill="rgba(134,88,214,0.4)"
                      stroke="rgba(255,255,255,0.4)"
                      stroke-width="1.2"
                    />
                    <path
                      d="M54 106 L126 132"
                      stroke="rgba(255,255,255,0.3)"
                      stroke-width="1"
                    />
                    <path
                      d="M54 118 L126 144"
                      stroke="rgba(255,255,255,0.3)"
                      stroke-width="1"
                    />
                  </g>

                  <g id="top_corset_art" class="avatar-piece">
                    <path
                      d="M56 96 L124 96 L118 138 Q90 150 62 138Z"
                      fill="#642f76"
                    />
                    <path
                      d="M90 96 L90 144"
                      stroke="#fce6ff"
                      stroke-width="1.5"
                    />
                    <circle cx="90" cy="104" r="1.4" fill="#fce6ff" />
                    <circle cx="90" cy="114" r="1.4" fill="#fce6ff" />
                    <circle cx="90" cy="124" r="1.4" fill="#fce6ff" />
                    <circle cx="90" cy="134" r="1.4" fill="#fce6ff" />
                  </g>

                  <g id="top_baby-tee_art" class="avatar-piece">
                    <path
                      d="M60 98 Q90 86 120 98 L116 132 Q90 140 64 132Z"
                      fill="#ffb9dd"
                    />
                    <text
                      x="90"
                      y="118"
                      text-anchor="middle"
                      font-size="8"
                      fill="#7d1d4b"
                    >
                      ANGEL
                    </text>
                  </g>

                  <g id="top_satin-cami_art" class="avatar-piece">
                    <path
                      d="M66 96 Q90 86 114 96 L118 132 Q90 144 62 132Z"
                      fill="#f7d5c8"
                    />
                    <path
                      d="M66 96 L72 84"
                      stroke="#f7d5c8"
                      stroke-width="2"
                    />
                    <path
                      d="M114 96 L108 84"
                      stroke="#f7d5c8"
                      stroke-width="2"
                    />
                  </g>

                  <g id="top_cropped-hoodie_art" class="avatar-piece">
                    <path d="M52 96 Q90 90 128 96 L124 132 Q90 142 56 132Z" fill="#4a4a6a"/>
                    <path d="M56 96 L64 84 L72 96 M124 96 L116 84 L108 96" stroke="#5a5a7a" stroke-width="2" fill="none"/>
                    <rect x="84" y="94" width="12" height="16" rx="2" fill="#6a6a8a"/>
                  </g>

                  <g id="top_oversized-shirt_art" class="avatar-piece">
                    <path
                      d="M50 96 Q90 88 130 96 L126 140 Q90 154 54 140Z"
                      fill="#f1f6f0"
                    />
                    <path
                      d="M88 96 L92 146"
                      stroke="#c7d3c7"
                      stroke-width="1.5"
                    />
                    <circle cx="90" cy="104" r="1.3" fill="#c7d3c7" />
                    <circle cx="90" cy="116" r="1.3" fill="#c7d3c7" />
                    <circle cx="90" cy="128" r="1.3" fill="#c7d3c7" />
                  </g>
                </g>

                <!-- BOTTOMS -->
                <g id="bottom-layer">
                  <g id="bottom_cargo-mini_art" class="avatar-piece">
                    <rect
                      x="62"
                      y="140"
                      width="56"
                      height="38"
                      rx="10"
                      fill="#717bff"
                    />
                    <rect
                      x="66"
                      y="150"
                      width="14"
                      height="10"
                      rx="3"
                      fill="#9aa3ff"
                    />
                    <rect
                      x="100"
                      y="150"
                      width="14"
                      height="10"
                      rx="3"
                      fill="#9aa3ff"
                    />
                    <rect
                      x="83"
                      y="140"
                      width="14"
                      height="4"
                      rx="2"
                      fill="#c6cdff"
                    />
                  </g>

                  <g id="bottom_lowrise-jeans_art" class="avatar-piece">
                    <path
                      d="M64 140 Q90 134 116 140 L118 208 L108 216 L72 216 L62 208Z"
                      fill="#4d77a5"
                    />
                    <path
                      d="M88 140 Q90 144 92 140"
                      stroke="#f6f9ff"
                      stroke-width="1.5"
                    />
                    <circle cx="84" cy="146" r="1.4" fill="#f6f9ff" />
                    <circle cx="96" cy="146" r="1.4" fill="#f6f9ff" />
                  </g>

                  <g id="bottom_tulle-skirt_art" class="avatar-piece">
                    <path
                      d="M60 142 Q90 134 120 142 L136 196 Q90 214 44 196Z"
                      fill="#f4c6ff"
                      opacity="0.9"
                    />
                    <path
                      d="M52 168 Q90 158 128 168"
                      stroke="#ffe6ff"
                      stroke-width="2"
                      fill="none"
                    />
                  </g>

                  <g id="bottom_tailored-trousers_art" class="avatar-piece">
                    <path
                      d="M66 140 Q90 134 114 140 L118 210 L104 220 L90 210 L76 220 L62 210Z"
                      fill="#262634"
                    />
                    <path
                      d="M90 140 L90 208"
                      stroke="#4a4a65"
                      stroke-width="1.2"
                    />
                  </g>

                  <g id="bottom_knitted-shorts_art" class="avatar-piece">
                    <rect
                      x="64"
                      y="144"
                      width="52"
                      height="32"
                      rx="12"
                      fill="#f1c9aa"
                    />
                    <path
                      d="M64 160 Q90 152 116 160"
                      stroke="#f7dcc5"
                      stroke-width="3"
                      fill="none"
                      stroke-dasharray="2 3"
                    />
                  </g>

                  <g id="bottom_wide-leg_art" class="avatar-piece">
                    <path d="M58 142 Q62 180 56 216 L68 218 L72 178 Q76 150 90 148 Q104 150 108 178 L112 218 L124 216 Q118 180 122 142 Z" fill="#2a2a2a"/>
                    <path d="M70 170 Q90 168 110 170" stroke="#4a4a4a" stroke-width="1" fill="none"/>
                  </g>
                </g>

                <!-- SHOES -->
                <g id="shoes-layer">
                  <g id="shoes_holographic-platforms_art" class="avatar-piece">
                    <rect
                      x="60"
                      y="216"
                      width="26"
                      height="10"
                      rx="4"
                      fill="#f7f0ff"
                    />
                    <rect
                      x="94"
                      y="216"
                      width="26"
                      height="10"
                      rx="4"
                      fill="#f7f0ff"
                    />
                    <rect
                      x="60"
                      y="224"
                      width="26"
                      height="8"
                      rx="3"
                      fill="#c0b7ff"
                    />
                    <rect
                      x="94"
                      y="224"
                      width="26"
                      height="8"
                      rx="3"
                      fill="#c0b7ff"
                    />
                  </g>

                  <g id="shoes_satin-heels_art" class="avatar-piece">
                    <path
                      d="M60 218 L78 218 L82 224 L66 224Z"
                      fill="#f9b8c6"
                    />
                    <path d="M96 218 L114 218 L118 224 L102 224Z" fill="#f9b8c6" />
                    <rect
                      x="62"
                      y="224"
                      width="3"
                      height="7"
                      fill="#f3a2b5"
                    />
                    <rect
                      x="112"
                      y="224"
                      width="3"
                      height="7"
                      fill="#f3a2b5"
                    />
                  </g>

                  <g id="shoes_pointed-flats_art" class="avatar-piece">
                    <path
                      d="M60 218 L78 218 L70 226Z"
                      fill="#f3f0f5"
                    />
                    <path
                      d="M102 218 L120 218 L112 226Z"
                      fill="#f3f0f5"
                    />
                  </g>

                  <g id="shoes_beaded-sandals_art" class="avatar-piece">
                    <rect
                      x="58"
                      y="220"
                      width="26"
                      height="4"
                      rx="2"
                      fill="#f0e3c0"
                    />
                    <rect
                      x="96"
                      y="220"
                      width="26"
                      height="4"
                      rx="2"
                      fill="#f0e3c0"
                    />
                    <circle cx="62" cy="220" r="1.3" fill="#ff9ab3" />
                    <circle cx="70" cy="220" r="1.3" fill="#78ffe0" />
                    <circle cx="78" cy="220" r="1.3" fill="#ffd56b" />
                    <circle cx="100" cy="220" r="1.3" fill="#ff9ab3" />
                    <circle cx="108" cy="220" r="1.3" fill="#78ffe0" />
                    <circle cx="116" cy="220" r="1.3" fill="#ffd56b" />
                  </g>

                  <g id="shoes_furry-mules_art" class="avatar-piece">
                    <rect
                      x="60"
                      y="218"
                      width="24"
                      height="6"
                      rx="3"
                      fill="#fdd9ff"
                    />
                    <rect
                      x="98"
                      y="218"
                      width="24"
                      height="6"
                      rx="3"
                      fill="#fdd9ff"
                    />
                    <ellipse
                      cx="72"
                      cy="220"
                      rx="10"
                      ry="5"
                      fill="#ffeefd"
                    />
                    <ellipse
                      cx="110"
                      cy="220"
                      rx="10"
                      ry="5"
                      fill="#ffeefd"
                    />
                  </g>

                  <g id="shoes_chunky-boots_art" class="avatar-piece">
                    <rect x="56" y="208" width="32" height="18" rx="4" fill="#1a1a1a"/>
                    <rect x="92" y="208" width="32" height="18" rx="4" fill="#1a1a1a"/>
                    <rect x="58" y="212" width="28" height="12" rx="2" fill="#2a2a2a"/>
                    <rect x="94" y="212" width="28" height="12" rx="2" fill="#2a2a2a"/>
                    <rect x="62" y="204" width="20" height="8" rx="2" fill="#252525"/>
                    <rect x="98" y="204" width="20" height="8" rx="2" fill="#252525"/>
                  </g>
                </g>

                <!-- ACCESSORIES -->
                <g id="accessories-layer">
                  <g id="acc_neon-sunnies_art" class="avatar-piece">
                    <rect
                      x="70"
                      y="54"
                      width="16"
                      height="6"
                      rx="3"
                      fill="#4cf5ff"
                    />
                    <rect
                      x="94"
                      y="54"
                      width="16"
                      height="6"
                      rx="3"
                      fill="#4cf5ff"
                    />
                    <rect
                      x="86"
                      y="56"
                      width="8"
                      height="2"
                      fill="#befdff"
                    />
                  </g>

                  <g id="acc_pearl-choker_art" class="avatar-piece">
                    <circle cx="78" cy="80" r="2" fill="#fff3ff" />
                    <circle cx="84" cy="81" r="2" fill="#fff3ff" />
                    <circle cx="90" cy="82" r="2" fill="#fff3ff" />
                    <circle cx="96" cy="81" r="2" fill="#fff3ff" />
                    <circle cx="102" cy="80" r="2" fill="#fff3ff" />
                  </g>

                  <g id="acc_butterfly-clips_art" class="avatar-piece">
                    <path
                      d="M68 48 L72 44 L76 48 L72 52Z"
                      fill="#ffb8f2"
                    />
                    <path
                      d="M104 48 L108 44 L112 48 L108 52Z"
                      fill="#ffb8f2"
                    />
                  </g>

                  <g id="acc_giant-tote_art" class="avatar-piece">
                    <rect
                      x="120"
                      y="128"
                      width="26"
                      height="34"
                      rx="6"
                      fill="#f6efe0"
                    />
                    <path
                      d="M124 128 Q133 118 142 128"
                      stroke="#e0d1b3"
                      stroke-width="2"
                      fill="none"
                    />
                  </g>

                  <g id="acc_gold-earrings_art" class="avatar-piece">
                    <circle
                      cx="72"
                      cy="66"
                      r="4"
                      stroke="#f3b85c"
                      stroke-width="2"
                      fill="none"
                    />
                    <circle
                      cx="108"
                      cy="66"
                      r="4"
                      stroke="#f3b85c"
                      stroke-width="2"
                      fill="none"
                    />
                  </g>

                  <g id="acc_opera-gloves_art" class="avatar-piece">
                    <rect
                      x="38"
                      y="110"
                      width="14"
                      height="70"
                      rx="7"
                      fill="#f6ecff"
                    />
                    <rect
                      x="128"
                      y="110"
                      width="14"
                      height="70"
                      rx="7"
                      fill="#f6ecff"
                    />
                  </g>
                </g>
              </svg>