<svg id="avatarBackSvg" class="avatar-svg" viewBox="0 0 180 260" xmlns="http://www.w3.org/2000/svg">
                  <rect x="0" y="0" width="180" height="260" fill="url(#haloGrad)" rx="28"/>
                  <g id="back-base">
                    <rect x="36" y="104" width="14" height="82" rx="9" fill="url(#skinGrad)"/>
                    <rect x="130" y="104" width="14" height="82" rx="9" fill="url(#skinGrad)"/>
                    <circle cx="90" cy="60" r="26" fill="url(#skinGrad)" stroke="rgba(255,255,255,0.5)" stroke-width="1"/>
                    <rect x="82" y="76" width="16" height="18" rx="7" fill="url(#skinGrad)"/>
                    <path d="M54 96 Q90 82 126 96 Q122 132 114 152 Q106 170 90 174 Q74 170 66 152 Q58 132 54 96Z" fill="url(#skinGrad)"/>
                    <path d="M62 168 Q90 182 118 168 L122 194 Q108 206 90 208 Q72 206 58 194Z" fill="url(#skinGrad)"/>
                    <rect x="72" y="194" width="14" height="60" rx="7" fill="url(#skinGrad)"/>
                    <rect x="94" y="194" width="14" height="60" rx="7" fill="url(#skinGrad)"/>
                  </g>
                  <g id="back-dress-layer">
                    <g id="dress_slip-dress_back_art" class="avatar-piece"><path d="M58 96 Q90 88 122 96 L118 194 Q90 208 62 194Z" fill="#e8d5e8" stroke="#c4a8c4" stroke-width="1"/></g>
                    <g id="dress_ballgown_back_art" class="avatar-piece"><path d="M50 96 Q90 80 130 96 Q128 140 120 200 Q90 220 60 200 Q52 140 50 96Z" fill="#3d1a4a" stroke="#5c2a6a" stroke-width="1"/></g>
                    <g id="dress_metallic-mini_back_art" class="avatar-piece"><path d="M60 96 Q90 90 120 96 L116 150 Q90 160 64 150Z" fill="#8a9bb5" stroke="#6a7b95" stroke-width="1"/></g>
                    <g id="dress_cutout-knit_back_art" class="avatar-piece"><path d="M56 96 Q90 86 124 96 L120 194 Q90 208 60 194Z" fill="#d4c4b8" stroke="#b8a898" stroke-width="1"/></g>
                    <g id="dress_archi-column_back_art" class="avatar-piece"><path d="M62 96 L118 96 L114 194 Q90 208 66 194Z" fill="#2a2a2a" stroke="#3a3a3a" stroke-width="1"/></g>
                    <g id="dress_blazer_back_art" class="avatar-piece"><path d="M58 96 L122 96 L118 194 Q90 208 62 194Z" fill="#1a1a2e" stroke="#2a2a4a" stroke-width="1"/></g>
                  </g>
                  <g id="back-top-layer">
                    <g id="top_mesh-long-sleeve_back_art" class="avatar-piece"><path d="M52 96 Q90 84 128 96 L124 138 Q90 152 56 138Z" fill="rgba(134,88,214,0.5)" stroke="rgba(255,255,255,0.3)" stroke-width="1"/></g>
                    <g id="top_corset_back_art" class="avatar-piece"><path d="M56 96 L124 96 L118 142 Q90 152 62 142Z" fill="#642f76"/></g>
                    <g id="top_baby-tee_back_art" class="avatar-piece"><path d="M60 96 Q90 88 120 96 L116 138 Q90 148 64 138Z" fill="#ffb9dd"/></g>
                    <g id="top_satin-cami_back_art" class="avatar-piece"><path d="M64 96 Q90 88 116 96 L112 138 Q90 148 68 138Z" fill="#f7d5c8"/></g>
                    <g id="top_oversized-shirt_back_art" class="avatar-piece"><path d="M48 96 Q90 86 132 96 L128 148 Q90 162 52 148Z" fill="#f1f6f0"/></g>
                    <g id="top_cropped-hoodie_back_art" class="avatar-piece"><path d="M52 96 Q90 88 128 96 L124 132 Q90 142 56 132Z" fill="#4a4a6a"/></g>
                  </g>
                  <g id="back-bottom-layer">
                    <g id="bottom_cargo-mini_back_art" class="avatar-piece"><path d="M62 140 Q90 132 118 140 L114 180 Q90 188 66 180Z" fill="#717bff"/></g>
                    <g id="bottom_lowrise-jeans_back_art" class="avatar-piece"><path d="M64 140 Q90 132 116 140 L112 216 L68 216 L64 208Z" fill="#4d77a5"/></g>
                    <g id="bottom_tulle-skirt_back_art" class="avatar-piece"><path d="M58 140 Q90 120 122 140 Q118 200 90 212 Q62 200 58 140Z" fill="#fce6ff"/></g>
                    <g id="bottom_tailored-trousers_back_art" class="avatar-piece"><path d="M66 140 L114 140 L110 216 L70 216Z" fill="#1a1a1a"/></g>
                    <g id="bottom_knitted-shorts_back_art" class="avatar-piece"><path d="M64 140 Q90 136 116 140 L112 175 Q90 182 68 175Z" fill="#c7d3c7"/></g>
                    <g id="bottom_wide-leg_back_art" class="avatar-piece"><path d="M58 140 L62 216 L70 218 L74 160 Q90 158 106 160 L110 218 L118 216 L122 140Z" fill="#2a2a2a"/></g>
                  </g>
                  <g id="back-hair-layer">
                    <g id="hair_bubble-pigtails_back_art" class="avatar-piece"><path d="M64 28 Q90 6 116 28 Q116 52 104 66 Q90 72 76 66 Q64 52 64 28Z" fill="#3a1b4a"/><circle cx="58" cy="62" r="10" fill="#5c2a7a"/><circle cx="122" cy="62" r="10" fill="#5c2a7a"/></g>
                    <g id="hair_sleek-bun_back_art" class="avatar-piece"><path d="M60 24 Q90 6 120 24 Q118 56 106 74 Q90 82 74 74 Q62 62 60 24Z" fill="#1b1025"/></g>
                    <g id="hair_beach-waves_back_art" class="avatar-piece"><path d="M60 38 Q90 18 120 38 L118 86 Q116 120 108 146 Q100 168 90 172 Q80 168 72 146 Q64 120 62 86Z" fill="#d38f5b"/></g>
                    <g id="hair_space-buns_back_art" class="avatar-piece"><ellipse cx="90" cy="28" rx="26" ry="14" fill="#2b103f"/></g>
                    <g id="hair_claw-clip_back_art" class="avatar-piece"><path d="M70 25 Q90 10 110 25 L108 55 Q90 68 72 55Z" fill="#211626"/></g>
                    <g id="hair_curtain-bangs_back_art" class="avatar-piece"><path d="M60 38 Q90 22 120 38 L118 78 Q116 110 108 136 Q100 156 90 160 Q80 156 72 136 Q64 110 62 78Z" fill="#2a1835"/></g>
                  </g>
                  <g id="back-shoes-layer">
                    <g id="shoes_holographic-platforms_back_art" class="avatar-piece"><path d="M70 250 L80 254 L100 254 L110 250 M94 250 L104 254 L124 254 L134 250" stroke="#b8c4ff" stroke-width="4" fill="none"/></g>
                    <g id="shoes_satin-heels_back_art" class="avatar-piece"><path d="M72 248 L88 256 L102 256 L118 248 M92 248 L106 256 L120 256 L136 248" stroke="#e8d5f0" stroke-width="3" fill="none"/></g>
                    <g id="shoes_pointed-flats_back_art" class="avatar-piece"><path d="M72 252 L90 256 L110 256 L128 252 M92 252 L108 256 L128 256 L146 252" stroke="#2a2a2a" stroke-width="2" fill="none"/></g>
                    <g id="shoes_beaded-sandals_back_art" class="avatar-piece"><path d="M70 252 L88 256 L102 256 L120 252 M92 252 L108 256 L122 256 L140 252" stroke="#d4b868" stroke-width="2" fill="none"/></g>
                    <g id="shoes_furry-mules_back_art" class="avatar-piece"><path d="M68 250 Q88 256 108 250 M90 250 Q108 256 128 250" stroke="#c9a882" stroke-width="6" fill="none" stroke-linecap="round"/></g>
                    <g id="shoes_chunky-boots_back_art" class="avatar-piece"><path d="M58 206 L66 254 L94 254 L102 206 M92 206 L100 254 L128 254 L136 206" stroke="#1a1a1a" stroke-width="8" fill="none" stroke-linecap="round"/></g>
                  </g>
                </svg>